<svg width="1080" height="1080" viewBox="0 0 1080 1080" fill="none" xmlns="http://www.w3.org/2000/svg">
<rect width="1080" height="1080" fill="#FBFBEC"/>
<path d="M883.456 692.854C901.29 650.042 911.147 603.179 911.147 554.042C911.147 351.929 744.787 188.087 539.572 188.087C334.356 188.087 168 351.929 168 554.042C168 607.685 179.719 658.628 200.771 704.53L883.456 692.854Z" fill="url(#paint0_linear_6_157)"/>
<path d="M911.147 554.247L879.338 546.296C864.957 515.876 838.406 530.253 838.406 530.253C838.961 506.47 818.495 482.686 785.309 492.643C752.122 502.601 759.864 537.444 759.864 537.444C737.186 533.02 723.91 538.55 716.72 544.08C709.529 549.609 711.19 564.546 714.508 568.419C717.826 572.292 722.254 566.758 734.419 565.652C745.78 564.62 889.23 565.997 910.92 566.185C911.051 562.22 911.143 558.242 911.143 554.247H911.147Z" fill="white"/>
<path d="M389.276 537.999V494.855C389.276 494.855 378.212 484.898 346.132 489.326C346.132 489.326 350.555 446.182 307.967 432.906C265.378 419.631 232.191 462.775 244.912 495.41C244.912 495.41 213.382 493.749 202.323 494.855C194.984 495.59 179.619 507.274 170.103 515.059C169.29 522.639 168.717 530.288 168.38 537.999H389.28H389.276Z" fill="white"/>
<path d="M175.465 693.454C175.21 682.234 184.236 673 195.46 673H883.54C894.764 673 903.79 682.234 903.535 693.454L899.444 873.454C899.197 884.32 890.318 893 879.449 893H199.551C188.682 893 179.803 884.32 179.556 873.454L175.465 693.454Z" fill="#0A1723"/>
<path d="M380.424 671.85V430.69H355.534L470.03 278.029L607.203 292.411C607.203 292.411 607.758 283.008 614.949 282.453C622.14 281.898 669.157 283.008 669.157 283.008C669.157 283.008 681.877 284.669 682.432 297.94C682.987 311.216 682.432 354.911 682.432 354.911L734.423 425.156C734.423 425.156 736.635 430.686 728.894 432.902C721.148 435.114 716.173 438.156 716.173 438.156C716.173 438.156 717.834 639.489 717.834 670.745C717.834 702 380.424 693.5 380.428 671.846L380.424 671.85Z" fill="#0A1723"/>
<path d="M233 950V939H305V950H233Z" fill="#0A1723"/>
<path d="M774 950V939H846V950H774Z" fill="#0A1723"/>
<path d="M573.741 408.567L715.618 413.546L676.207 371.233C676.207 371.233 666.25 371.648 662.932 371.648C659.614 371.648 646.339 371.648 638.042 368.745C629.746 365.843 594.898 352.568 579.966 342.61C565.034 332.652 584.945 326.432 584.945 326.432L607.347 325.186L607.208 292.415L472.023 278.244L573.741 408.572V408.567Z" fill="url(#paint1_linear_6_157)"/>
<path d="M379.598 423.504L556.318 418.11L470.445 298.22L379.598 423.504Z" fill="url(#paint2_radial_6_157)"/>
<path d="M665.419 358.788L642.606 362.521L645.093 296.563L666.25 298.635L665.419 358.788Z" fill="white"/>
<path d="M604.441 574.088L671.644 576.164L670.813 669.503L718 673L716.169 438.16L562.678 430.415L560.741 669.363L604.025 668.257L604.441 574.088Z" fill="#FBFBEC"/>
<path d="M659.199 266.415C659.199 266.415 673.025 216.636 727.783 208.89C782.542 201.144 838.406 198.381 860.533 176.254C882.656 154.131 880.444 114.305 880.444 114.305C880.444 114.305 825.131 112.644 780.33 117.072C735.529 121.496 699.576 133.665 669.707 177.915C639.839 222.165 647.029 245.394 659.199 266.415Z" fill="url(#paint3_linear_6_157)"/>
<path d="M665.004 579.897H610.245V667.427H665.004V579.897Z" fill="#012871"/>
<path d="M675.823 460.449C675.805 455.619 671.884 451.711 667.054 451.711H610.652C605.835 451.711 601.918 455.597 601.883 460.414L601.451 519.452C601.42 523.609 604.725 527.023 608.877 527.128L668.217 528.667C672.514 528.776 676.054 525.318 676.037 521.017L675.818 460.445L675.823 460.449Z" fill="#031A43"/>
<path d="M664.589 496.468H642.741V516.104H664.589V496.468Z" fill="#0CA7F2"/>
<path d="M634.305 496.468H612.457V516.104H634.305V496.468Z" fill="#0CA7F2"/>
<path d="M664.589 464.156H642.741V483.792H664.589V464.156Z" fill="#0CA7F2"/>
<path d="M634.305 464.156H612.457V483.792H634.305V464.156Z" fill="#0CA7F2"/>
<path d="M505.983 670.745H440.716L439.055 597.181C439.055 597.181 437.394 580.588 468.924 577.821C500.453 575.054 505.983 581.139 504.877 595.52C503.771 609.902 505.983 670.745 505.983 670.745Z" fill="white"/>
<path d="M480.403 484.067V515.317H503.784C506.525 515.317 508.75 513.092 508.75 510.351V484.067H480.403Z" fill="white"/>
<path d="M470.24 484.067H440.716V510.351C440.716 513.092 442.941 515.317 445.682 515.317H470.24V484.067Z" fill="white"/>
<path d="M480.403 473.698H508.75V447.55C508.75 444.809 506.525 442.584 503.784 442.584H480.403V473.698Z" fill="white"/>
<path d="M470.24 473.698V442.584H445.682C442.941 442.584 440.716 444.809 440.716 447.55V473.698H470.24Z" fill="white"/>
<path d="M816.419 453.757C816.296 453.39 815.807 443.952 812.498 442.239C809.189 440.525 808.577 440.154 804.9 439.419C801.224 438.685 801.959 434.152 806.369 434.03C810.78 433.907 815.19 433.295 815.313 430.353C815.435 427.412 814.334 420.304 816.414 417.856C818.499 415.404 821.192 416.02 821.804 420.798C822.416 425.576 821.192 429.252 827.194 433.173C833.195 437.094 836.504 439.424 833.077 440.892C829.646 442.361 824.623 441.749 823.767 446.037C822.91 450.326 822.91 454.124 820.58 455.348C818.25 456.572 816.414 453.757 816.414 453.757H816.419Z" fill="white"/>
<path d="M784.837 413.961C784.662 413.437 783.967 400.008 779.255 397.569C774.547 395.126 773.672 394.606 768.444 393.556C763.212 392.512 764.261 386.06 770.538 385.885C776.815 385.71 783.092 384.84 783.267 380.653C783.442 376.469 781.873 366.354 784.837 362.866C787.8 359.378 791.638 360.252 792.508 367.049C793.378 373.851 791.638 379.083 800.18 384.661C808.725 390.243 813.433 393.556 808.55 395.646C803.668 397.74 796.516 396.865 795.297 402.972C794.077 409.074 794.077 414.481 790.764 416.226C787.451 417.97 784.837 413.957 784.837 413.957V413.961Z" fill="white"/>
<path d="M337.905 353.603C337.7 352.983 336.869 337.01 331.27 334.108C325.67 331.205 324.634 330.58 318.409 329.339C312.185 328.093 313.431 320.421 320.897 320.212C328.363 320.002 335.829 318.966 336.039 313.987C336.248 309.008 334.378 296.979 337.905 292.83C341.433 288.682 345.996 289.718 347.032 297.809C348.068 305.9 345.996 312.12 356.159 318.76C366.322 325.396 371.922 329.339 366.117 331.826C360.308 334.313 351.806 333.277 350.354 340.538C348.903 347.798 348.903 354.228 344.96 356.3C341.017 358.377 337.909 353.603 337.909 353.603H337.905Z" fill="white"/>
<path d="M855.191 305.148C855.056 304.742 854.514 294.308 850.855 292.411C847.196 290.514 846.519 290.107 842.454 289.294C838.388 288.481 839.201 283.467 844.08 283.332C848.958 283.196 853.836 282.519 853.972 279.266C854.107 276.014 852.888 268.155 855.191 265.445C857.495 262.734 860.476 263.412 861.154 268.697C861.831 273.982 860.476 278.047 867.116 282.383C873.756 286.719 877.415 289.294 873.62 290.92C869.826 292.546 864.27 291.869 863.322 296.611C862.373 301.354 862.373 305.555 859.799 306.91C857.224 308.265 855.191 305.148 855.191 305.148Z" fill="#0A1723"/>
<path d="M543.305 246.998C543.2 246.679 542.771 238.439 539.882 236.944C536.993 235.449 536.459 235.126 533.251 234.483C530.042 233.841 530.685 229.885 534.536 229.775C538.387 229.666 542.238 229.133 542.347 226.567C542.452 224.001 541.491 217.794 543.309 215.656C545.127 213.519 547.479 214.052 548.017 218.222C548.55 222.392 547.484 225.605 552.725 229.028C557.966 232.451 560.855 234.483 557.861 235.768C554.867 237.053 550.478 236.516 549.73 240.262C548.983 244.008 548.983 247.321 546.95 248.392C544.918 249.463 543.313 247.002 543.313 247.002L543.305 246.998Z" fill="#0A1723"/>
<path d="M398.04 297.577C397.905 297.171 397.363 286.737 393.704 284.84C390.045 282.943 389.368 282.536 385.302 281.723C381.237 280.91 382.05 275.896 386.928 275.761C391.807 275.625 396.685 274.948 396.82 271.695C396.956 268.443 395.736 260.584 398.04 257.874C400.344 255.164 403.325 255.841 404.002 261.126C404.68 266.411 403.325 270.476 409.965 274.812C416.605 279.148 420.263 281.723 416.469 283.349C412.675 284.975 407.119 284.298 406.171 289.04C405.222 293.783 405.222 297.984 402.647 299.339C400.073 300.694 398.04 297.577 398.04 297.577Z" fill="#0A1723"/>
<path d="M282.836 233.465C282.662 232.936 281.953 219.306 277.171 216.828C272.394 214.349 271.506 213.82 266.2 212.758C260.889 211.696 261.951 205.148 268.324 204.973C274.697 204.798 281.066 203.911 281.245 199.662C281.42 195.413 279.829 185.15 282.836 181.609C285.844 178.068 289.739 178.956 290.622 185.858C291.505 192.76 289.739 198.071 298.407 203.732C307.079 209.397 311.857 212.758 306.9 214.883C301.943 217.007 294.687 216.12 293.45 222.314C292.213 228.508 292.213 233.994 288.847 235.764C285.485 237.534 282.828 233.465 282.828 233.465H282.836Z" fill="#0A1723"/>
<path d="M211.07 309.795C210.895 309.266 210.187 295.637 205.405 293.158C200.627 290.68 199.739 290.151 194.433 289.089C189.122 288.026 190.184 281.478 196.557 281.303C202.93 281.129 209.299 280.241 209.479 275.992C209.653 271.744 208.062 261.48 211.07 257.939C214.077 254.399 217.972 255.286 218.855 262.188C219.738 269.09 217.972 274.401 226.64 280.062C235.312 285.727 240.09 289.089 235.133 291.213C230.176 293.337 222.92 292.45 221.683 298.644C220.446 304.838 220.446 310.324 217.08 312.094C213.719 313.865 211.061 309.795 211.061 309.795H211.07Z" fill="#0A1723"/>
<path d="M245.54 857V828.02H282.29C291.25 828.02 299.09 826.27 305.81 822.77C312.53 819.13 317.71 813.88 321.35 807.02C324.99 800.16 326.81 792.04 326.81 782.66C326.81 773.28 324.92 765.23 321.14 758.51C317.5 751.79 312.32 746.61 305.6 742.97C299.02 739.33 291.25 737.51 282.29 737.51H244.49V708.74H282.71C293.91 708.74 304.2 710.56 313.58 714.2C323.1 717.7 331.36 722.81 338.36 729.53C345.5 736.11 350.96 743.95 354.74 753.05C358.66 762.01 360.62 771.95 360.62 782.87C360.62 793.65 358.66 803.59 354.74 812.69C350.96 821.79 345.57 829.63 338.57 836.21C331.57 842.79 323.31 847.9 313.79 851.54C304.41 855.18 294.19 857 283.13 857H245.54ZM223.28 857V708.74H256.25V857H223.28ZM385.8 857V708.74H418.77V857H385.8ZM487.854 857V710.84H520.824V857H487.854ZM441.444 737.51V708.74H567.234V737.51H441.444ZM652.402 859.31C641.342 859.31 631.052 857.42 621.532 853.64C612.152 849.72 603.892 844.26 596.752 837.26C589.752 830.26 584.292 822.14 580.372 812.9C576.452 803.52 574.492 793.44 574.492 782.66C574.492 771.88 576.452 761.87 580.372 752.63C584.292 743.25 589.752 735.13 596.752 728.27C603.752 721.41 611.942 716.09 621.322 712.31C630.842 708.39 641.132 706.43 652.192 706.43C663.952 706.43 674.382 708.32 683.482 712.1C692.722 715.88 700.772 721.06 707.632 727.64L685.582 749.9C681.662 745.7 676.902 742.41 671.302 740.03C665.842 737.65 659.472 736.46 652.192 736.46C645.752 736.46 639.802 737.58 634.342 739.82C629.022 741.92 624.402 745 620.482 749.06C616.702 753.12 613.692 758.02 611.452 763.76C609.352 769.5 608.302 775.8 608.302 782.66C608.302 789.66 609.352 796.03 611.452 801.77C613.692 807.51 616.702 812.41 620.482 816.47C624.402 820.53 629.022 823.68 634.342 825.92C639.802 828.16 645.752 829.28 652.192 829.28C659.752 829.28 666.332 828.09 671.932 825.71C677.532 823.33 682.362 820.04 686.422 815.84L708.682 838.1C701.542 844.68 693.352 849.86 684.112 853.64C675.012 857.42 664.442 859.31 652.402 859.31ZM731.037 857V708.74H764.007V857H731.037ZM822.807 857V708.74H855.987V857H822.807ZM750.777 795.05V766.49H833.727V795.05H750.777Z" fill="#FBFBEC"/>
<path d="M364.44 973V916.52H373.4L395.64 951.16H391.08L413.24 916.52H422.28V973H409.72V937.72L411.96 938.28L397.48 960.84H389.16L374.76 938.28L376.92 937.72V973H364.44ZM452.072 951.96L430.312 916.52H444.872L461.592 945.16H452.232L468.952 916.52H483.192L461.272 951.96H452.072ZM450.552 973V946.2H463.112V973H450.552Z" fill="black"/>
<path d="M533.04 949.72V940.44H544.96C547.467 940.44 549.387 939.8 550.72 938.52C552.107 937.24 552.8 935.507 552.8 933.32C552.8 931.293 552.133 929.613 550.8 928.28C549.467 926.947 547.547 926.28 545.04 926.28H533.04V916.52H546.48C550.213 916.52 553.493 917.24 556.32 918.68C559.147 920.067 561.36 922.013 562.96 924.52C564.56 927.027 565.36 929.907 565.36 933.16C565.36 936.467 564.56 939.373 562.96 941.88C561.36 944.333 559.12 946.253 556.24 947.64C553.36 949.027 549.973 949.72 546.08 949.72H533.04ZM523.44 973V916.52H536V973H523.44ZM554.16 973L536.56 948.68L548.08 945.56L569.04 973H554.16ZM576.134 973V916.52H588.694V973H576.134ZM585.734 973V962.12H616.694V973H585.734ZM585.734 949.4V938.92H613.894V949.4H585.734ZM585.734 927.32V916.52H616.294V927.32H585.734ZM626.952 973V916.52H635.752L639.512 927.8V973H626.952ZM665.912 973L632.632 930.36L635.752 916.52L669.033 959.16L665.912 973ZM665.912 973L662.552 961.72V916.52H675.112V973H665.912ZM701.455 973V917.32H714.015V973H701.455ZM683.775 927.48V916.52H731.695V927.48H683.775Z" fill="black"/>
<defs>
<linearGradient id="paint0_linear_6_157" x1="531.166" y1="201.638" x2="542.623" y2="681.668" gradientUnits="userSpaceOnUse">
<stop offset="0.08" stop-color="#0DD2F5"/>
<stop offset="0.69" stop-color="#2977EB"/>
<stop offset="0.77" stop-color="#2B73E6"/>
<stop offset="0.86" stop-color="#3467DA"/>
<stop offset="0.95" stop-color="#4153C4"/>
<stop offset="1" stop-color="#4B47B7"/>
</linearGradient>
<linearGradient id="paint1_linear_6_157" x1="568.435" y1="272.797" x2="604.528" y2="376.736" gradientUnits="userSpaceOnUse">
<stop offset="0.28" stop-color="#FFB62C"/>
<stop offset="0.39" stop-color="#FEA034"/>
<stop offset="0.63" stop-color="#FE6849"/>
<stop offset="0.97" stop-color="#FD0F6A"/>
<stop offset="1" stop-color="#FD076E"/>
</linearGradient>
<radialGradient id="paint2_radial_6_157" cx="0" cy="0" r="1" gradientUnits="userSpaceOnUse" gradientTransform="translate(473.059 392.118) scale(176.903 176.903)">
<stop stop-color="#0A1723"/>
<stop offset="0.41" stop-color="#3A1D50"/>
<stop offset="0.67" stop-color="#532168"/>
</radialGradient>
<linearGradient id="paint3_linear_6_157" x1="745.92" y1="122.711" x2="769.424" y2="192.349" gradientUnits="userSpaceOnUse">
<stop offset="0.33" stop-color="#FFB62C"/>
<stop offset="0.45" stop-color="#FE9D35"/>
<stop offset="0.7" stop-color="#FD5D4D"/>
<stop offset="1" stop-color="#FD076E"/>
</linearGradient>
</defs>
</svg>
