<svg width="1080" height="1080" viewBox="0 0 1080 1080" fill="none" xmlns="http://www.w3.org/2000/svg">
<rect width="1080" height="1080" fill="#FBFBEC"/>
<path d="M942.544 715.3C963.447 665.064 975 610.073 975 552.415C975 315.254 780.019 123 539.497 123C298.976 123 104 315.254 104 552.415C104 615.362 117.735 675.138 142.409 729L942.544 715.3Z" fill="url(#paint0_linear_6_157)"/>
<path d="M975.214 552.115L937.923 542.794C921.064 507.132 889.937 523.987 889.937 523.987C890.588 496.104 866.595 468.222 827.69 479.895C788.784 491.569 797.86 532.417 797.86 532.417C771.274 527.231 755.711 533.713 747.281 540.196C738.851 546.678 740.798 564.189 744.688 568.729C748.577 573.269 753.769 566.782 768.03 565.485C781.349 564.276 949.52 565.89 974.948 566.11C975.102 561.462 975.209 556.799 975.209 552.115H975.214Z" fill="white"/>
<path d="M363.408 533.067V482.488C363.408 482.488 350.438 470.815 312.829 476.006C312.829 476.006 318.015 425.427 268.087 409.864C218.159 394.3 179.254 444.879 194.166 483.139C194.166 483.139 157.203 481.192 144.238 482.488C135.634 483.349 117.621 497.047 106.465 506.174C105.512 515.06 104.84 524.028 104.446 533.067H363.413H363.408Z" fill="white"/>
<path d="M112.465 711.454C112.21 700.234 121.236 691 132.46 691H946.54C957.764 691 966.79 700.234 966.535 711.454L961.58 929.454C961.333 940.32 952.454 949 941.585 949H137.415C126.546 949 117.667 940.32 117.42 929.454L112.465 711.454Z" fill="#0A1723"/>
<path d="M353.144 690.251V407.187H324L458.068 228L618.69 244.88C618.69 244.88 619.34 233.844 627.76 233.192C636.18 232.541 691.234 233.844 691.234 233.844C691.234 233.844 706.129 235.794 706.779 251.371C707.429 266.953 706.779 318.24 706.779 318.24L767.658 400.691C767.658 400.691 770.247 407.181 761.183 409.783C752.113 412.379 746.288 415.95 746.288 415.95C746.288 415.95 748.233 652.266 748.233 688.952C748.233 725.639 353.144 715.662 353.15 690.245L353.144 690.251Z" fill="#0A1723"/>
<path d="M185 1016C182.791 1016 181 1014.21 181 1012V1007C181 1004.79 182.791 1003 185 1003H260C262.209 1003 264 1004.79 264 1007V1012C264 1014.21 262.209 1016 260 1016H185Z" fill="#0A1723"/>
<path d="M819 1016C816.791 1016 815 1014.21 815 1012V1007C815 1004.79 816.791 1003 819 1003H895C897.209 1003 899 1004.79 899 1007V1012C899 1014.21 897.209 1016 895 1016H819Z" fill="#0A1723"/>
<path d="M579.663 381.33L745.99 387.167L699.787 337.562C699.787 337.562 688.113 338.049 684.224 338.049C680.334 338.049 664.771 338.049 655.045 334.646C645.318 331.243 604.466 315.68 586.96 304.006C569.455 292.333 592.797 285.041 592.797 285.041L619.06 283.58L618.896 245.162L460.416 228.548L579.663 381.335V381.33Z" fill="url(#paint1_linear_6_157)"/>
<path d="M352.063 398.841L559.237 392.517L458.566 251.967L352.063 398.841Z" fill="url(#paint2_radial_6_157)"/>
<path d="M687.14 322.972L660.395 327.349L663.311 250.025L688.113 252.454L687.14 322.972Z" fill="white"/>
<path d="M615.653 575.375L694.437 577.809L693.463 687.233L748.782 691.333L746.635 416.023L566.693 406.943L564.423 687.069L615.166 685.773L615.653 575.375Z" fill="#FBFBEC"/>
<path d="M679.848 214.681C679.848 214.681 696.056 156.323 760.251 147.242C824.446 138.162 889.937 134.923 915.878 108.983C941.813 83.0473 939.22 36.3578 939.22 36.3578C939.22 36.3578 874.374 34.4105 821.853 39.6016C769.332 44.7876 727.183 59.0543 692.167 110.93C657.151 162.805 665.581 190.037 679.848 214.681Z" fill="url(#paint3_linear_6_157)"/>
<path d="M686.653 582.186H622.458V684.799H686.653V582.186Z" fill="#012871"/>
<path d="M699.336 442.153C699.316 436.491 694.719 431.909 689.056 431.909H622.935C617.287 431.909 612.696 436.465 612.655 442.112L612.147 511.324C612.112 516.197 615.986 520.2 620.854 520.323L690.419 522.126C695.457 522.255 699.608 518.201 699.587 513.159L699.331 442.148L699.336 442.153Z" fill="#031A43"/>
<path d="M686.166 484.379H660.554V507.398H686.166V484.379Z" fill="#0CA7F2"/>
<path d="M650.663 484.379H625.051V507.398H650.663V484.379Z" fill="#0CA7F2"/>
<path d="M686.166 446.499H660.554V469.518H686.166V446.499Z" fill="#0CA7F2"/>
<path d="M650.663 446.499H625.051V469.518H650.663V446.499Z" fill="#0CA7F2"/>
<path d="M500.228 688.689H423.714L421.766 602.448C421.766 602.448 419.819 582.995 456.782 579.752C493.745 576.508 500.228 583.641 498.931 600.501C497.635 617.36 500.228 688.689 500.228 688.689Z" fill="white"/>
<path d="M470.239 469.841V506.476H497.65C500.863 506.476 503.472 503.868 503.472 500.655V469.841H470.239Z" fill="white"/>
<path d="M458.325 469.841H423.714V500.655C423.714 503.868 426.322 506.476 429.535 506.476H458.325V469.841Z" fill="white"/>
<path d="M470.239 457.686H503.472V427.031C503.472 423.818 500.863 421.209 497.65 421.209H470.239V457.686Z" fill="white"/>
<path d="M458.325 457.686V421.209H429.535C426.322 421.209 423.714 423.818 423.714 427.031V457.686H458.325Z" fill="white"/>
<path d="M864.161 434.307C864.018 433.877 863.444 422.813 859.564 420.804C855.685 418.796 854.968 418.36 850.658 417.499C846.348 416.638 847.209 411.324 852.38 411.181C857.55 411.037 862.721 410.32 862.864 406.871C863.008 403.422 861.717 395.09 864.156 392.22C866.6 389.345 869.757 390.067 870.474 395.669C871.192 401.27 869.757 405.579 876.793 410.176C883.829 414.773 887.708 417.504 883.691 419.226C879.668 420.948 873.78 420.23 872.775 425.258C871.771 430.285 871.771 434.738 869.039 436.173C866.308 437.608 864.156 434.307 864.156 434.307H864.161Z" fill="white"/>
<path d="M827.136 387.654C826.931 387.039 826.117 371.296 820.592 368.437C815.073 365.572 814.048 364.962 807.919 363.733C801.785 362.508 803.015 354.944 810.374 354.739C817.733 354.534 825.092 353.514 825.297 348.605C825.502 343.701 823.662 331.843 827.136 327.753C830.611 323.664 835.11 324.689 836.13 332.658C837.15 340.631 835.11 346.765 845.123 353.304C855.142 359.848 860.661 363.733 854.937 366.182C849.213 368.637 840.829 367.612 839.399 374.771C837.97 381.925 837.97 388.264 834.085 390.308C830.201 392.353 827.136 387.649 827.136 387.649V387.654Z" fill="white"/>
<path d="M303.185 316.895C302.944 316.167 301.97 297.442 295.406 294.039C288.841 290.636 287.627 289.904 280.33 288.448C273.032 286.988 274.493 277.994 283.245 277.748C291.998 277.502 300.751 276.288 300.997 270.451C301.243 264.614 299.049 250.511 303.185 245.648C307.32 240.785 312.67 242 313.885 251.485C315.099 260.971 312.67 268.263 324.585 276.047C336.499 283.826 343.064 288.448 336.259 291.364C329.448 294.28 319.481 293.065 317.78 301.577C316.078 310.089 316.078 317.627 311.456 320.056C306.834 322.49 303.19 316.895 303.19 316.895H303.185Z" fill="white"/>
<path d="M909.615 260.089C909.457 259.613 908.821 247.38 904.532 245.156C900.243 242.932 899.448 242.456 894.683 241.502C889.917 240.549 890.87 234.671 896.589 234.513C902.308 234.354 908.027 233.559 908.186 229.747C908.345 225.934 906.915 216.72 909.615 213.543C912.316 210.366 915.811 211.16 916.605 217.356C917.4 223.551 915.811 228.317 923.595 233.401C931.379 238.484 935.668 241.502 931.22 243.409C926.772 245.315 920.259 244.521 919.147 250.081C918.035 255.641 918.035 260.566 915.017 262.154C911.998 263.743 909.615 260.089 909.615 260.089Z" fill="#0A1723"/>
<path d="M543.981 191.918C543.858 191.544 543.356 181.884 539.969 180.131C536.581 178.379 535.956 178 532.195 177.246C528.433 176.493 529.187 171.855 533.701 171.727C538.216 171.599 542.731 170.974 542.859 167.966C542.982 164.958 541.854 157.681 543.986 155.175C546.118 152.669 548.875 153.294 549.505 158.183C550.131 163.072 548.88 166.838 555.024 170.851C561.169 174.863 564.556 177.246 561.046 178.753C557.535 180.259 552.39 179.629 551.514 184.021C550.638 188.413 550.638 192.297 548.255 193.552C545.872 194.808 543.991 191.923 543.991 191.923L543.981 191.918Z" fill="#0A1723"/>
<path d="M373.683 251.213C373.524 250.737 372.889 238.505 368.599 236.281C364.31 234.057 363.516 233.58 358.75 232.627C353.984 231.674 354.937 225.796 360.656 225.637C366.375 225.478 372.094 224.684 372.253 220.871C372.412 217.059 370.982 207.845 373.683 204.667C376.384 201.49 379.879 202.285 380.673 208.48C381.467 214.676 379.879 219.441 387.663 224.525C395.447 229.609 399.736 232.627 395.288 234.533C390.84 236.439 384.327 235.645 383.215 241.205C382.103 246.765 382.103 251.69 379.084 253.279C376.066 254.867 373.683 251.213 373.683 251.213Z" fill="#0A1723"/>
<path d="M238.626 176.052C238.421 175.432 237.591 159.454 231.985 156.548C226.384 153.643 225.343 153.023 219.122 151.777C212.896 150.532 214.141 142.856 221.613 142.651C229.084 142.446 236.551 141.405 236.761 136.424C236.966 131.443 235.101 119.411 238.626 115.26C242.152 111.109 246.718 112.149 247.753 120.241C248.788 128.333 246.718 134.559 256.88 141.195C267.047 147.837 272.648 151.777 266.837 154.268C261.025 156.758 252.519 155.718 251.069 162.98C249.618 170.241 249.618 176.672 245.672 178.748C241.732 180.823 238.616 176.052 238.616 176.052H238.626Z" fill="#0A1723"/>
<path d="M154.492 265.537C154.287 264.917 153.457 248.938 147.851 246.033C142.249 243.127 141.209 242.507 134.988 241.262C128.762 240.016 130.007 232.34 137.478 232.135C144.95 231.93 152.416 230.89 152.627 225.909C152.832 220.928 150.966 208.895 154.492 204.744C158.018 200.594 162.584 201.634 163.619 209.725C164.654 217.817 162.584 224.043 172.745 230.68C182.912 237.321 188.514 241.262 182.702 243.752C176.891 246.243 168.384 245.202 166.934 252.464C165.484 259.725 165.484 266.157 161.538 268.232C157.597 270.308 154.482 265.537 154.482 265.537H154.492Z" fill="#0A1723"/>
<path d="M195.105 907.28V873.159H238.203C248.711 873.159 257.905 871.099 265.786 866.978C273.667 862.692 279.742 856.511 284.01 848.434C288.279 840.357 290.414 830.797 290.414 819.753C290.414 808.709 288.197 799.231 283.764 791.319C279.495 783.407 273.421 777.308 265.54 773.022C257.823 768.736 248.711 766.593 238.203 766.593H193.874V732.72H238.696C251.831 732.72 263.898 734.863 274.898 739.148C286.063 743.269 295.75 749.286 303.959 757.198C312.332 764.945 318.735 774.176 323.168 784.89C327.765 795.44 330.064 807.143 330.064 820C330.064 832.692 327.765 844.396 323.168 855.11C318.735 865.824 312.414 875.055 304.205 882.802C295.996 890.549 286.309 896.566 275.145 900.852C264.144 905.137 252.159 907.28 239.188 907.28H195.105ZM169 907.28V732.72H207.665V907.28H169Z" fill="#FBFBEC"/>
<path d="M359.594 907.28V732.72H398.259V907.28H359.594Z" fill="#FBFBEC"/>
<path d="M479.276 907.28V735.192H517.941V907.28H479.276ZM424.849 766.593V732.72H572.368V766.593H424.849Z" fill="#FBFBEC"/>
<path d="M672.248 910C659.277 910 647.21 907.775 636.045 903.324C625.045 898.709 615.358 892.28 606.985 884.038C598.776 875.797 592.373 866.236 587.775 855.357C583.178 844.313 580.88 832.445 580.88 819.753C580.88 807.06 583.178 795.275 587.775 784.396C592.373 773.352 598.776 763.791 606.985 755.714C615.194 747.637 624.799 741.374 635.799 736.923C646.964 732.308 659.031 730 672.002 730C685.793 730 698.025 732.225 708.697 736.676C719.533 741.126 728.973 747.225 737.018 754.973L711.159 781.181C706.562 776.236 700.98 772.363 694.413 769.56C688.009 766.758 680.539 765.357 672.002 765.357C664.449 765.357 657.471 766.676 651.068 769.313C644.829 771.786 639.411 775.412 634.814 780.192C630.381 784.973 626.851 790.742 624.224 797.5C621.761 804.258 620.53 811.676 620.53 819.753C620.53 827.995 621.761 835.494 624.224 842.253C626.851 849.011 630.381 854.78 634.814 859.56C639.411 864.341 644.829 868.049 651.068 870.687C657.471 873.324 664.449 874.643 672.002 874.643C680.867 874.643 688.584 873.242 695.151 870.44C701.719 867.637 707.383 863.764 712.144 858.819L738.25 885.027C729.876 892.775 720.271 898.874 709.435 903.324C698.763 907.775 686.368 910 672.248 910Z" fill="#FBFBEC"/>
<path d="M764.466 907.28V732.72H803.131V907.28H764.466ZM872.089 907.28V732.72H911V907.28H872.089ZM787.616 834.341V800.714H884.895V834.341H787.616Z" fill="#FBFBEC"/>
<path d="M335 1043V976H345.412L371.257 1017.09H365.958L391.71 976H402.215V1043H387.619V1001.15L390.222 1001.81L373.395 1028.58H363.727L346.993 1001.81L349.503 1001.15V1043H335Z" fill="#0A1723"/>
<path d="M436.836 1018.04L411.549 976H428.469L447.899 1009.97H437.022L456.452 976H473L447.527 1018.04H436.836ZM435.069 1043V1011.21H449.665V1043H435.069Z" fill="#0A1723"/>
<path d="M531.294 1015.38V1004.38H545.317C548.266 1004.38 550.525 1003.62 552.093 1002.1C553.725 1000.58 554.54 998.523 554.54 995.929C554.54 993.525 553.756 991.532 552.187 989.95C550.619 988.369 548.36 987.578 545.411 987.578H531.294V976H547.105C551.497 976 555.356 976.854 558.681 978.562C562.007 980.207 564.611 982.517 566.493 985.49C568.375 988.464 569.316 991.88 569.316 995.739C569.316 999.662 568.375 1003.11 566.493 1006.08C564.611 1008.99 561.975 1011.27 558.587 1012.92C555.199 1014.56 551.215 1015.38 546.635 1015.38H531.294ZM520 1043V976H534.776V1043H520ZM556.14 1043L535.435 1014.15L548.988 1010.45L573.646 1043H556.14Z" fill="#0A1723"/>
<path d="M581.991 1043V976H596.767V1043H581.991ZM593.285 1043V1030.09H629.708V1043H593.285ZM593.285 1015V1002.57H626.414V1015H593.285ZM593.285 988.812V976H629.237V988.812H593.285Z" fill="#0A1723"/>
<path d="M641.776 1043V976H652.129L656.553 989.381V1043H641.776ZM687.611 1043L648.459 992.418L652.129 976L691.281 1026.58L687.611 1043ZM687.611 1043L683.658 1029.62V976H698.434V1043H687.611Z" fill="#0A1723"/>
<path d="M729.424 1043V976.949H744.2V1043H729.424ZM708.625 989.001V976H765V989.001H708.625Z" fill="#0A1723"/>
<defs>
<linearGradient id="paint0_linear_6_157" x1="529.645" y1="138.901" x2="543.105" y2="702.173" gradientUnits="userSpaceOnUse">
<stop offset="0.08" stop-color="#0DD2F5"/>
<stop offset="0.69" stop-color="#2977EB"/>
<stop offset="0.77" stop-color="#2B73E6"/>
<stop offset="0.86" stop-color="#3467DA"/>
<stop offset="0.95" stop-color="#4153C4"/>
<stop offset="1" stop-color="#4B47B7"/>
</linearGradient>
<linearGradient id="paint1_linear_6_157" x1="573.442" y1="222.163" x2="615.755" y2="344.014" gradientUnits="userSpaceOnUse">
<stop offset="0.28" stop-color="#FFB62C"/>
<stop offset="0.39" stop-color="#FEA034"/>
<stop offset="0.63" stop-color="#FE6849"/>
<stop offset="0.97" stop-color="#FD0F6A"/>
<stop offset="1" stop-color="#FD076E"/>
</linearGradient>
<radialGradient id="paint2_radial_6_157" cx="0" cy="0" r="1" gradientUnits="userSpaceOnUse" gradientTransform="translate(461.63 362.047) scale(207.389 207.389)">
<stop stop-color="#0A1723"/>
<stop offset="0.41" stop-color="#3A1D50"/>
<stop offset="0.67" stop-color="#532168"/>
</radialGradient>
<linearGradient id="paint3_linear_6_157" x1="781.513" y1="46.2123" x2="809.067" y2="127.851" gradientUnits="userSpaceOnUse">
<stop offset="0.33" stop-color="#FFB62C"/>
<stop offset="0.45" stop-color="#FE9D35"/>
<stop offset="0.7" stop-color="#FD5D4D"/>
<stop offset="1" stop-color="#FD076E"/>
</linearGradient>
</defs>
</svg>
